<?xml version="1.0" standalone="no"?>
<!DOCTYPE svg PUBLIC "-//W3C//DTD SVG 20010904//EN"
 "http://www.w3.org/TR/2001/REC-SVG-20010904/DTD/svg10.dtd">
<svg version="1.0" xmlns="http://www.w3.org/2000/svg"
 width="483.000000pt" height="483.000000pt" viewBox="0 0 483.000000 483.000000"
 preserveAspectRatio="xMidYMid meet">
<metadata>
Created by potrace 1.11, written by Peter Selinger 2001-2013
</metadata>
<g transform="translate(0.000000,483.000000) scale(0.100000,-0.100000)"
fill="#000000" stroke="none">
<path d="M2140 4805 c-47 -7 -107 -16 -135 -20 -27 -4 -53 -9 -56 -11 -4 -2
-24 -6 -45 -10 -65 -10 -264 -70 -365 -110 -174 -68 -432 -208 -530 -288 -15
-11 -39 -30 -55 -41 -65 -47 -143 -116 -243 -215 -227 -226 -407 -500 -527
-799 -26 -64 -47 -120 -48 -126 -2 -5 -12 -41 -24 -80 -22 -72 -57 -217 -65
-270 -3 -16 -8 -50 -12 -75 -4 -25 -9 -56 -12 -70 -3 -14 -7 -119 -8 -235 -3
-226 4 -316 39 -499 39 -202 100 -384 203 -605 46 -99 162 -284 247 -396 101
-133 264 -301 390 -402 45 -35 89 -71 99 -79 19 -15 161 -108 217 -141 111
-66 314 -157 460 -206 66 -22 287 -75 345 -83 28 -3 53 -8 56 -10 30 -18 452
-26 600 -12 208 21 504 99 705 187 514 226 941 632 1190 1131 124 248 212 547
242 820 11 103 7 488 -6 560 -6 36 -14 83 -17 105 -30 208 -144 535 -263 750
-41 74 -148 243 -161 255 -4 3 -26 32 -51 64 -117 155 -273 308 -446 439 -426
321 -917 485 -1454 484 -102 0 -223 -5 -270 -12z m510 -478 c14 -3 43 -8 65
-11 86 -12 113 -18 203 -42 430 -115 809 -377 1068 -737 173 -241 284 -507
338 -810 15 -87 21 -181 20 -342 -2 -201 -24 -363 -71 -514 -15 -47 -27 -88
-28 -91 -5 -25 -30 -84 -87 -210 -57 -123 -176 -305 -278 -420 -240 -275 -519
-460 -861 -573 -117 -39 -173 -52 -349 -82 -19 -3 -114 -8 -210 -10 -242 -5
-431 22 -639 91 -512 170 -914 525 -1148 1014 -73 153 -143 381 -158 515 -4
33 -11 79 -15 103 -8 46 -5 399 3 442 3 14 8 41 11 60 65 437 308 875 642
1156 118 100 175 142 287 208 183 108 441 205 612 231 22 3 47 7 55 10 8 2 42
7 75 10 33 4 61 8 63 10 5 5 375 -3 402 -8z"/>
</g>
</svg>
